<?xml version="1.0" ?><svg id="OBJECT" viewBox="0 0 512 512" xmlns="http://www.w3.org/2000/svg"><defs><style>.cls-1{fill:#3d9ae2;}.cls-2{fill:#bddbff;}.cls-3{fill:#fff;}</style></defs><title/><path class="cls-1" d="M504.5,193.5A7.5,7.5,0,0,1,497,186V103.5H456a7.5,7.5,0,0,1,0-15h48.5A7.5,7.5,0,0,1,512,96v90A7.5,7.5,0,0,1,504.5,193.5Z"/><path class="cls-2" d="M27.5,7.5h330a0,0,0,0,1,0,0v497a0,0,0,0,1,0,0H27.5a20,20,0,0,1-20-20V27.5a20,20,0,0,1,20-20Z"/><path class="cls-1" d="M357.5,512H27.5A27.54,27.54,0,0,1,0,484.5V27.5A27.54,27.54,0,0,1,27.5,0h330A7.5,7.5,0,0,1,365,7.5v497A7.5,7.5,0,0,1,357.5,512ZM27.5,15A12.52,12.52,0,0,0,15,27.5v457A12.52,12.52,0,0,0,27.5,497H350V15Z"/><path class="cls-3" d="M27.5,7.5h60a0,0,0,0,1,0,0v497a0,0,0,0,1,0,0h-60a20,20,0,0,1-20-20V27.5a20,20,0,0,1,20-20Z"/><path class="cls-1" d="M87.5,512h-60A27.54,27.54,0,0,1,0,484.5V27.5A27.54,27.54,0,0,1,27.5,0h60A7.5,7.5,0,0,1,95,7.5v497A7.5,7.5,0,0,1,87.5,512ZM27.5,15A12.52,12.52,0,0,0,15,27.5v457A12.52,12.52,0,0,0,27.5,497H80V15Z"/><rect class="cls-3" height="95.33" rx="20" ry="20" width="189.33" x="127.83" y="47.5"/><path class="cls-1" d="M297.17,150.33H147.83a27.53,27.53,0,0,1-27.5-27.5V67.5A27.54,27.54,0,0,1,147.83,40H297.17a27.54,27.54,0,0,1,27.5,27.5v55.33A27.53,27.53,0,0,1,297.17,150.33ZM147.83,55a12.52,12.52,0,0,0-12.5,12.5v55.33a12.51,12.51,0,0,0,12.5,12.5H297.17a12.51,12.51,0,0,0,12.5-12.5V67.5A12.52,12.52,0,0,0,297.17,55Z"/><rect class="cls-2" height="360" width="50" x="406" y="67.5"/><path class="cls-1" d="M456,435H406a7.5,7.5,0,0,1-7.5-7.5V67.5A7.5,7.5,0,0,1,406,60h50a7.5,7.5,0,0,1,7.5,7.5v360A7.5,7.5,0,0,1,456,435Zm-42.5-15h35V75h-35Z"/><polygon class="cls-3" points="456 427.5 406 427.5 406 469.5 431 504.5 456 469.5 456 427.5"/><path class="cls-1" d="M431,512a7.49,7.49,0,0,1-6.1-3.14l-25-35a7.5,7.5,0,0,1-1.4-4.36v-42A7.5,7.5,0,0,1,406,420h50a7.5,7.5,0,0,1,7.5,7.5v42a7.5,7.5,0,0,1-1.4,4.36l-25,35A7.49,7.49,0,0,1,431,512Zm-17.5-44.9L431,491.6l17.5-24.5V435h-35Z"/><rect class="cls-3" height="60" width="30" x="416" y="7.5"/><path class="cls-1" d="M446,75H416a7.5,7.5,0,0,1-7.5-7.5V7.5A7.5,7.5,0,0,1,416,0h30a7.5,7.5,0,0,1,7.5,7.5v60A7.5,7.5,0,0,1,446,75ZM423.5,60h15V15h-15Z"/></svg>